<svg version="1.1" id="Layer_1" xmlns="http://www.w3.org/2000/svg" xmlns:xlink="http://www.w3.org/1999/xlink" x="0px" y="0px"
	 width="100%" viewBox="0 0 2523 2600" enable-background="new 0 0 2523 2600" xml:space="preserve">
<path fill="#FEFEFE" opacity="1.000000" stroke="none" 
	d="
M2.796996,2380.607910 
	C2.000000,1637.291504 2.000000,894.583069 2.000000,150.937317 
	C4.925175,147.329575 8.566355,146.974030 12.269136,146.838501 
	C16.599899,146.680008 20.932995,146.743393 25.265099,146.743378 
	C851.086182,146.740631 1676.907227,146.737106 2502.728271,146.800049 
	C2509.973145,146.800598 2517.427979,145.463913 2525.202637,149.391327 
	C2526.000000,892.708496 2526.000000,1635.416992 2526.000000,2379.062744 
	C2523.074951,2382.670410 2519.433838,2383.026367 2515.730957,2383.161377 
	C2511.399902,2383.319336 2507.066895,2383.255127 2502.734619,2383.255127 
	C1676.907227,2383.257812 851.079712,2383.261230 25.252264,2383.198730 
	C18.013388,2383.198242 10.564793,2384.533447 2.796996,2380.607910 
z"/>
<path fill="#FFFFFF" opacity="1.000000" stroke="none" 
	d="
M2525.202637,2433.391357 
	C2526.000000,2489.982910 2526.000000,2545.965820 2526.000000,2601.911865 
	C1684.666626,2601.911865 843.333313,2601.911865 2.000000,2601.911865 
	C2.000000,2546.507324 2.000000,2491.190918 2.000000,2434.937256 
	C4.925190,2431.329590 8.566183,2430.973389 12.269120,2430.838867 
	C16.599897,2430.681152 20.932980,2430.744629 25.265087,2430.744629 
	C851.086121,2430.741943 1676.907227,2430.738525 2502.728271,2430.801270 
	C2509.973145,2430.802002 2517.427979,2429.463379 2525.202637,2433.391357 
z"/>
<path fill="#000000" opacity="1.000000" stroke="none" 
	d="
M2526.000000,149.062683 
	C2523.009277,150.111954 2520.018311,150.321991 2517.027588,150.322037 
	C1680.302368,150.334808 843.577209,150.333054 6.851982,150.330399 
	C5.852460,150.330399 4.852938,150.311874 2.926708,150.151001 
	C2.000000,111.958206 2.000000,73.916420 2.000000,34.937317 
	C4.925185,31.329596 8.566367,30.974045 12.269146,30.838531 
	C16.599907,30.680035 20.933004,30.743374 25.265108,30.743359 
	C851.086182,30.740700 1676.907227,30.737099 2502.728271,30.800039 
	C2509.973145,30.800592 2517.427979,29.463907 2525.202637,33.391304 
	C2526.000000,72.041786 2526.000000,110.083580 2526.000000,149.062683 
z"/>
<path fill="#020202" opacity="1.000000" stroke="none" 
	d="
M2526.000000,2433.077637 
	C2523.008545,2433.895264 2520.016846,2433.698975 2517.025391,2433.698975 
	C1680.291992,2433.685791 843.558472,2433.686523 6.825049,2433.687744 
	C5.825553,2433.687744 4.826056,2433.704102 2.913280,2433.856445 
	C2.000000,2416.614990 2.000000,2399.229980 2.000001,2380.922363 
	C4.990115,2379.885986 7.980225,2379.672119 10.970340,2379.672119 
	C847.706482,2379.656006 1684.442627,2379.654785 2521.178711,2379.654297 
	C2522.178223,2379.654297 2523.177979,2379.672852 2525.088867,2379.841309 
	C2526.000000,2397.385010 2526.000000,2414.770020 2526.000000,2433.077637 
z"/>
<path fill="#FBFBFB" opacity="1.000000" stroke="none" 
	d="
M2526.000000,33.076515 
	C2523.008301,33.895775 2520.016846,33.700249 2517.025146,33.700203 
	C1680.291870,33.687340 843.558594,33.688011 6.825286,33.689457 
	C5.825775,33.689457 4.826262,33.706020 2.913375,33.857422 
	C2.000000,23.336824 2.000000,12.673650 2.000000,2.081485 
	C843.333313,2.081485 1684.666626,2.081485 2526.000000,2.081485 
	C2526.000000,12.159654 2526.000000,22.156338 2526.000000,33.076515 
z"/>
<path fill="#043661" opacity="1.000000" stroke="none" 
	d="
M1184.000000,1374.125610 
	C1142.397827,1374.125610 1101.795654,1374.125610 1060.233276,1374.125610 
	C1063.193359,1355.956665 1065.983887,1338.665894 1068.830566,1321.384399 
	C1078.570068,1262.257568 1088.321289,1203.132690 1098.083374,1144.009521 
	C1105.622437,1098.350098 1113.000854,1052.662598 1120.924316,1007.069885 
	C1122.193115,999.768616 1120.739990,994.783386 1116.119263,989.065002 
	C1028.453003,880.572083 1081.603394,718.730835 1216.407227,683.181396 
	C1326.345703,654.189331 1438.479736,728.099365 1454.377686,840.214600 
	C1462.278320,895.931763 1448.482300,945.919739 1413.175537,989.718140 
	C1408.709961,995.257935 1407.758057,1000.172729 1408.907471,1006.932556 
	C1418.115112,1061.084473 1426.980713,1115.294556 1435.927124,1169.490845 
	C1446.282837,1232.225586 1456.616089,1294.964233 1466.951660,1357.702393 
	C1467.761841,1362.619995 1468.511597,1367.547485 1469.247925,1372.208130 
	C1468.971069,1372.761719 1468.893433,1373.082153 1468.692871,1373.274292 
	C1468.460938,1373.496338 1468.127319,1373.728760 1467.826538,1373.744385 
	C1464.846069,1373.899658 1461.863403,1374.118652 1458.881348,1374.119141 
	C1367.587524,1374.135376 1276.293823,1374.128662 1184.000000,1374.125610 
z"/>
<path fill="#043761" opacity="1.000000" stroke="none" 
	d="
M1263.391724,1920.368652 
	C1331.159302,1882.741699 1398.256836,1845.832031 1465.355469,1808.924561 
	C1477.319336,1802.343872 1489.378052,1795.928589 1501.207153,1789.114258 
	C1505.435547,1786.678467 1509.632935,1785.723877 1514.452637,1785.725586 
	C1717.414062,1785.794922 1920.375488,1785.782227 2123.336914,1785.780029 
	C2125.575439,1785.779907 2127.813721,1785.780151 2131.231201,1785.780151 
	C2128.752686,1789.410034 2125.843018,1790.281738 2123.413574,1791.607666 
	C1898.343506,1914.455933 1673.251465,2037.263550 1448.160278,2160.072754 
	C1389.110352,2192.290039 1330.060181,2224.506836 1271.004517,2256.713623 
	C1267.792725,2258.465332 1264.528076,2260.119873 1260.584839,2261.692383 
	C1254.705444,2252.889404 1256.045410,2243.164795 1257.222412,2234.221191 
	C1259.975708,2213.301270 1255.842041,2192.340088 1258.729614,2171.499023 
	C1259.272949,2167.576904 1258.870483,2163.514893 1258.800781,2159.519287 
	C1257.483032,2083.927002 1262.092041,2008.387939 1260.853760,1932.795898 
	C1260.788574,1928.814209 1260.731812,1924.770020 1263.391724,1920.368652 
z"/>
<path fill="#043661" opacity="1.000000" stroke="none" 
	d="
M2191.417480,695.989258 
	C2194.736328,696.058777 2196.285645,697.485229 2196.319580,700.275513 
	C2196.355713,703.273621 2196.375000,706.272217 2196.375244,709.270569 
	C2196.377930,939.491028 2196.382080,1169.711548 2196.368896,1399.932007 
	C2196.368164,1412.729004 2197.505371,1411.356445 2185.369385,1411.372803 
	C2155.050781,1411.413818 2124.732422,1411.385742 2094.413818,1411.386353 
	C2032.444214,1411.387695 1970.474609,1411.397461 1908.505005,1411.384033 
	C1896.986206,1411.381592 1897.592285,1412.670166 1897.592896,1400.805908 
	C1897.601318,1223.226440 1897.609619,1045.646973 1897.682861,867.146179 
	C1897.154663,861.650757 1901.155151,860.957886 1903.806885,859.467163 
	C1967.277222,823.784241 2030.565552,787.778442 2094.068115,752.152344 
	C2122.775879,736.046814 2151.526855,720.015564 2180.087646,703.648010 
	C2183.843750,701.495422 2187.493896,699.186340 2191.417480,695.989258 
z"/>
<path fill="#043661" opacity="1.000000" stroke="none" 
	d="
M632.919556,863.750000 
	C631.802795,868.615051 632.423401,872.987915 632.422607,877.290771 
	C632.389832,1051.230713 632.402283,1225.170776 632.374451,1399.110718 
	C632.372192,1413.011353 633.860596,1411.362915 620.134949,1411.368408 
	C528.499939,1411.404907 436.864868,1411.386841 345.229828,1411.386719 
	C343.896973,1411.386719 342.563538,1411.413574 341.231323,1411.384888 
	C333.789368,1411.224976 333.732422,1411.220947 333.650177,1403.527832 
	C333.575439,1396.531006 333.647308,1389.532715 333.647217,1382.535156 
	C333.644867,1158.279297 333.641113,934.023315 333.643707,709.767395 
	C333.643768,706.436218 333.721222,703.105042 334.083862,698.885254 
	C338.710541,697.258484 342.068146,699.477539 345.572205,701.437683 
	C407.717621,736.201721 469.642883,771.357056 531.760071,806.171387 
	C565.421814,825.037537 598.982422,844.084351 632.919556,863.750000 
z"/>
<path fill="#10588F" opacity="1.000000" stroke="none" 
	d="
M1263.640381,1919.130127 
	C1264.034180,1952.887573 1265.037231,1986.164551 1263.745361,2019.352051 
	C1261.652222,2073.122803 1262.808228,2126.901367 1261.509277,2180.648926 
	C1261.246216,2191.537109 1262.544189,2202.364502 1261.717285,2213.094238 
	C1260.518433,2228.649170 1259.877319,2244.174805 1259.934326,2260.659668 
	C1256.331177,2261.435059 1253.858643,2258.985352 1251.079346,2257.313965 
	C1040.473999,2130.659180 829.892944,2003.964233 619.311462,1877.269653 
	C571.946106,1848.772705 524.583923,1820.270508 477.231293,1791.752563 
	C475.066742,1790.448975 473.010956,1788.964600 471.201385,1785.783813 
	C474.007111,1785.783813 476.812805,1785.783813 479.618530,1785.783813 
	C659.525452,1785.781250 839.432312,1785.806885 1019.339111,1785.659546 
	C1025.636475,1785.654297 1030.919922,1787.292969 1036.257446,1790.315430 
	C1111.879028,1833.137207 1187.555908,1875.861572 1263.640381,1919.130127 
z"/>
<path fill="#10588F" opacity="1.000000" stroke="none" 
	d="
M633.919678,864.306885 
	C621.607605,861.844177 612.439331,854.215454 602.242126,848.758667 
	C584.090881,839.045593 566.435974,828.408264 548.512573,818.265198 
	C522.776001,803.700500 497.000946,789.203369 471.212036,774.731323 
	C448.029480,761.721863 424.791779,748.810730 401.604645,735.809448 
	C379.576111,723.457703 357.581543,711.045471 334.988586,698.328247 
	C335.621246,694.857971 338.792694,694.192383 341.268829,692.766663 
	C522.564941,588.379822 703.887634,484.038910 885.206238,379.690948 
	C903.107971,369.388550 920.988586,359.049316 938.901611,348.766602 
	C941.993408,346.991821 945.199280,345.415558 948.188232,343.834442 
	C950.789856,346.207214 949.970764,348.651062 949.971680,350.803894 
	C950.012512,452.793701 949.946838,554.783630 950.143555,656.773132 
	C950.155334,662.897461 948.075012,666.334900 943.049622,669.500854 
	C840.164551,734.318054 737.371277,799.281067 633.919678,864.306885 
z"/>
<path fill="#10588F" opacity="1.000000" stroke="none" 
	d="
M2191.762207,695.070923 
	C2192.193359,699.193054 2189.985840,700.872986 2187.179688,702.441589 
	C2166.050293,714.252686 2144.971191,726.154053 2123.896484,738.062683 
	C2099.936035,751.602051 2076.008057,765.198608 2052.043945,778.731689 
	C2034.718872,788.515747 2017.339600,798.203735 2000.017944,807.994019 
	C1975.771973,821.697937 1951.569702,835.479187 1927.323120,849.181885 
	C1917.797119,854.565247 1908.202026,859.826233 1898.193237,865.683960 
	C1863.747925,844.623779 1829.777710,822.975647 1795.741699,801.431396 
	C1726.810425,757.798889 1657.892212,714.145020 1588.808716,670.754700 
	C1582.550659,666.824097 1579.745483,662.942505 1579.771973,655.076904 
	C1580.109741,554.809998 1579.995728,454.541626 1579.996460,354.273621 
	C1579.996460,351.049744 1579.996460,347.825867 1579.996460,343.923798 
	C1585.071655,344.726685 1588.235962,347.227020 1591.569336,349.144714 
	C1750.869873,440.792358 1910.148560,532.478027 2069.424316,624.168762 
	C2110.106934,647.588684 2150.771729,671.039673 2191.762207,695.070923 
z"/>
<path fill="#083962" opacity="1.000000" stroke="none" 
	d="
M1384.265503,1646.000000 
	C1384.261475,1588.055298 1384.256958,1531.110718 1384.254883,1474.166016 
	C1384.254761,1471.835449 1384.279907,1469.505005 1384.286865,1467.174438 
	C1384.294189,1464.701050 1385.707764,1463.628540 1388.002319,1463.538452 
	C1389.997803,1463.459961 1391.997314,1463.468750 1393.995117,1463.468628 
	C1426.297119,1463.466675 1458.598999,1463.459839 1490.901001,1463.474976 
	C1507.000488,1463.482422 1522.740723,1465.633911 1537.869995,1471.418945 
	C1565.338135,1481.922241 1582.175415,1501.456177 1587.046509,1530.543701 
	C1589.763550,1546.768066 1589.186279,1563.026733 1584.523560,1579.008179 
	C1578.529663,1599.552124 1566.141724,1614.900146 1547.527466,1625.316650 
	C1545.260376,1626.585327 1542.984375,1627.837769 1539.926758,1629.533447 
	C1557.719727,1656.434692 1575.257324,1682.949707 1592.606323,1709.179688 
	C1590.405884,1712.447266 1587.848145,1711.383301 1585.709229,1711.400391 
	C1572.722656,1711.504761 1559.726929,1711.185669 1546.751343,1711.574585 
	C1541.335083,1711.736694 1538.367676,1709.840820 1535.725830,1705.184937 
	C1524.558960,1685.504517 1512.693115,1666.216064 1501.756348,1646.412354 
	C1498.172607,1639.923096 1494.058350,1637.849731 1486.845459,1638.110352 
	C1470.881836,1638.687134 1454.880005,1638.466553 1438.900269,1638.189697 
	C1433.655518,1638.098877 1432.032471,1639.868652 1432.098999,1645.041504 
	C1432.343262,1664.020020 1432.217163,1683.003418 1432.191528,1701.984985 
	C1432.178833,1711.385254 1432.140747,1711.420288 1423.209229,1711.454956 
	C1413.218994,1711.493774 1403.228394,1711.414185 1393.238403,1711.471924 
	C1383.115479,1711.530396 1384.246582,1711.098145 1384.253174,1701.947021 
	C1384.266479,1683.631348 1384.262329,1665.315674 1384.265503,1646.000000 
z"/>
<path fill="#083962" opacity="1.000000" stroke="none" 
	d="
M737.996338,1504.910156 
	C708.015625,1504.914307 679.033997,1504.887573 650.052490,1504.943359 
	C641.891541,1504.959106 641.808289,1505.069824 641.774414,1513.088867 
	C641.710999,1528.078979 641.706116,1543.069946 641.774048,1558.060059 
	C641.809448,1565.865356 641.902893,1565.951538 650.234497,1565.960693 
	C683.546692,1565.997559 716.859009,1565.918701 750.171021,1566.003662 
	C763.925171,1566.038818 761.972229,1564.232666 762.119019,1578.403442 
	C762.198364,1586.064453 761.932373,1593.734253 762.210876,1601.385986 
	C762.381714,1606.078979 760.866577,1607.875488 755.965393,1607.770142 
	C742.979553,1607.490601 729.983887,1607.667114 716.992126,1607.667725 
	C694.339844,1607.668701 671.687439,1607.628784 649.035339,1607.703613 
	C641.945679,1607.727051 641.814575,1607.870117 641.777161,1614.753174 
	C641.692078,1630.409424 641.694641,1646.066650 641.771973,1661.723022 
	C641.810791,1669.566772 641.919922,1669.669678 650.258240,1669.678589 
	C689.566650,1669.720581 728.875000,1669.701294 768.183411,1669.703369 
	C770.515259,1669.703491 772.850220,1669.778564 775.178101,1669.682617 
	C778.311646,1669.553589 780.190735,1670.467163 780.156006,1674.093994 
	C780.050781,1685.085815 780.095337,1696.079468 780.130798,1707.072144 
	C780.139893,1709.903076 778.988281,1711.456543 776.028931,1711.434692 
	C773.697388,1711.417358 771.365479,1711.461426 769.033691,1711.461426 
	C714.401672,1711.462036 659.769714,1711.461060 605.137695,1711.459106 
	C603.138977,1711.458984 601.132568,1711.335205 599.143250,1711.469727 
	C595.257263,1711.732422 593.644165,1709.978271 593.955444,1706.155640 
	C594.090149,1704.500977 593.977600,1702.826294 593.977661,1701.160645 
	C593.980347,1625.541992 593.965698,1549.923218 594.003906,1474.304565 
	C594.009766,1462.598022 592.440308,1463.471558 604.531555,1463.465820 
	C657.831055,1463.440430 711.130554,1463.454590 764.430054,1463.455078 
	C766.428772,1463.455078 768.440735,1463.610962 770.423584,1463.435547 
	C774.952637,1463.034302 776.067749,1465.314209 775.984619,1469.421387 
	C775.789124,1479.078003 775.608765,1488.755493 776.043945,1498.396484 
	C776.298584,1504.040161 773.781067,1505.084961 768.974548,1504.981567 
	C758.985596,1504.766846 748.988892,1504.912720 737.996338,1504.910156 
z"/>
<path fill="#083962" opacity="1.000000" stroke="none" 
	d="
M384.914856,1589.183472 
	C348.571320,1570.544556 344.672150,1537.587891 352.245911,1512.104248 
	C359.075867,1489.123291 376.138824,1475.604736 397.989380,1468.200073 
	C431.508362,1456.841187 464.942261,1459.712769 497.993866,1470.827881 
	C507.797668,1474.124878 517.174133,1478.451660 526.067017,1483.755005 
	C531.853271,1487.205444 531.873535,1487.304932 528.916443,1493.787109 
	C524.495422,1503.478149 520.038391,1513.154053 515.475281,1522.778687 
	C512.743347,1528.541016 512.564758,1528.629395 506.762848,1525.485352 
	C487.256866,1514.915283 466.806305,1507.290527 444.581940,1504.971313 
	C435.155212,1503.987793 425.870972,1504.753784 417.025635,1508.079590 
	C399.691864,1514.597168 396.220093,1532.853882 409.702881,1545.604370 
	C416.156921,1551.707764 424.154999,1555.132935 432.363770,1557.901001 
	C444.974945,1562.153809 457.752686,1565.910522 470.437195,1569.948486 
	C480.604553,1573.185181 490.409576,1577.264771 499.928619,1582.138672 
	C547.472534,1606.481934 543.124390,1671.948120 503.873230,1696.281860 
	C482.933777,1709.263428 460.034210,1713.560791 436.014069,1713.004761 
	C400.597565,1712.184570 368.844879,1700.580688 340.808624,1678.913452 
	C334.073517,1673.708496 334.091553,1673.609131 337.819000,1666.080322 
	C343.106628,1655.400513 348.464264,1644.755127 353.754364,1634.170288 
	C357.917908,1635.239258 359.991913,1637.997681 362.578186,1639.937988 
	C382.912903,1655.193848 405.230621,1665.780640 430.655945,1669.105103 
	C442.061676,1670.596436 453.317352,1669.738281 464.147583,1665.802979 
	C473.429779,1662.430054 480.442139,1656.564941 481.919128,1646.122314 
	C483.493896,1634.988159 478.553101,1626.740356 469.608337,1620.648193 
	C462.382690,1615.726929 454.251495,1612.680054 445.967712,1610.109985 
	C434.842682,1606.658325 423.654480,1603.410278 412.492401,1600.078125 
	C403.223206,1597.311279 394.234985,1593.825562 384.914856,1589.183472 
z"/>
<path fill="#083963" opacity="1.000000" stroke="none" 
	d="
M1096.492188,1631.118408 
	C1094.935669,1619.686279 1094.501465,1609.059204 1094.528076,1598.377197 
	C1094.630249,1557.397705 1094.569458,1516.417969 1094.571289,1475.438232 
	C1094.571411,1473.106079 1094.667236,1470.770996 1094.578247,1468.442627 
	C1094.454956,1465.220459 1095.673218,1463.448120 1099.134521,1463.459229 
	C1112.127686,1463.500854 1125.121338,1463.495361 1138.114502,1463.455078 
	C1141.015259,1463.446045 1142.360107,1464.724121 1142.274414,1467.636108 
	C1142.205933,1469.966064 1142.274170,1472.299927 1142.274170,1474.632080 
	C1142.273560,1517.610718 1142.297852,1560.589478 1142.241943,1603.568115 
	C1142.233643,1609.922729 1142.731201,1616.195801 1143.782593,1622.458252 
	C1144.898071,1629.101074 1147.104980,1635.343628 1150.283081,1641.240479 
	C1162.190918,1663.335815 1187.941528,1674.232666 1217.519775,1669.749634 
	C1241.991089,1666.040649 1258.960815,1649.771606 1264.174805,1625.296021 
	C1265.645874,1618.390381 1266.025024,1611.458740 1266.021729,1604.448486 
	C1266.001221,1560.803467 1265.994873,1517.158447 1266.031494,1473.513428 
	C1266.040405,1462.798462 1264.686890,1463.476929 1276.383057,1463.456787 
	C1286.378174,1463.439575 1296.374023,1463.378662 1306.368042,1463.484985 
	C1313.614502,1463.562012 1313.781738,1463.669800 1313.787231,1470.513794 
	C1313.825317,1518.156738 1313.893555,1565.800049 1313.701050,1613.442261 
	C1313.652344,1625.483887 1311.453491,1637.342773 1307.424316,1648.708618 
	C1295.637817,1681.958130 1271.716675,1701.718262 1237.904419,1709.845215 
	C1215.513550,1715.226929 1192.866089,1715.227295 1170.569458,1709.584839 
	C1129.821655,1699.273315 1104.965698,1673.380859 1096.492188,1631.118408 
z"/>
<path fill="#083962" opacity="1.000000" stroke="none" 
	d="
M1010.482605,1648.629150 
	C1014.411743,1645.544067 1017.777710,1642.903809 1021.744385,1639.792236 
	C1029.900146,1648.862915 1037.703735,1657.907837 1045.942871,1666.536987 
	C1049.573608,1670.339600 1048.257690,1672.626099 1045.081665,1675.468140 
	C1031.043945,1688.030029 1015.432495,1697.995605 997.773682,1704.684204 
	C935.633606,1728.220581 865.890320,1703.145996 836.524353,1645.924683 
	C798.739868,1572.299438 837.228088,1480.537720 927.794739,1464.132446 
	C969.498230,1456.578369 1006.983032,1466.991089 1040.146240,1493.229614 
	C1041.972046,1494.674072 1043.605347,1496.361084 1045.425659,1497.813232 
	C1048.168091,1500.001465 1049.098389,1502.056274 1046.474731,1505.258545 
	C1038.266235,1515.276978 1030.303223,1525.496948 1021.737671,1536.277588 
	C1018.451172,1533.255005 1015.710999,1530.527222 1012.759094,1528.052124 
	C984.313599,1504.203125 952.948730,1496.694702 918.119507,1512.335083 
	C883.978027,1527.666504 865.316833,1565.246338 872.636902,1602.496094 
	C879.891113,1639.410889 911.822571,1666.714111 949.248047,1668.288330 
	C971.864746,1669.239624 991.785217,1662.075317 1010.482605,1648.629150 
z"/>
<path fill="#083962" opacity="1.000000" stroke="none" 
	d="
M2058.020020,1539.900024 
	C2065.571533,1552.881348 2072.782715,1565.214844 2080.374756,1578.199341 
	C2083.660400,1576.078979 2084.660156,1572.905884 2086.172852,1570.267578 
	C2105.042236,1537.356689 2123.997559,1504.493042 2142.535400,1471.395874 
	C2145.885742,1465.414185 2149.591309,1462.946411 2156.535156,1463.284668 
	C2168.800537,1463.882446 2181.115723,1463.452148 2193.490479,1463.452148 
	C2194.449707,1468.120850 2191.493896,1470.845581 2189.861084,1473.873779 
	C2163.174561,1523.373291 2136.436279,1572.845093 2109.520508,1622.220215 
	C2106.545654,1627.677124 2105.096680,1633.057617 2105.164551,1639.270020 
	C2105.397461,1660.580566 2105.295166,1681.895264 2105.225830,1703.208130 
	C2105.199219,1711.322876 2105.082520,1711.391968 2096.895264,1711.445557 
	C2086.239014,1711.515259 2075.581543,1711.533569 2064.926025,1711.435059 
	C2057.840088,1711.369507 2057.689697,1711.261353 2057.662598,1704.280518 
	C2057.583984,1683.966797 2057.390625,1663.647949 2057.767578,1643.340820 
	C2057.909180,1635.718872 2056.037354,1629.207764 2052.367676,1622.577515 
	C2024.813477,1572.794067 1997.518799,1522.866943 1970.190552,1472.958740 
	C1968.787964,1470.397583 1966.864990,1468.011597 1966.388794,1464.046997 
	C1971.952637,1462.880981 1977.488403,1463.591553 1982.930420,1463.494995 
	C1990.587524,1463.359009 1998.271484,1463.816528 2005.900513,1463.333618 
	C2011.677124,1462.967773 2014.862305,1465.139160 2017.683838,1470.122192 
	C2030.801025,1493.287231 2044.310669,1516.229980 2058.020020,1539.900024 
z"/>
<path fill="#083962" opacity="1.000000" stroke="none" 
	d="
M1828.104736,1654.000000 
	C1828.105957,1608.340820 1828.107422,1563.681641 1828.108154,1519.022461 
	C1828.108154,1516.689453 1827.892578,1514.333496 1828.144409,1512.028320 
	C1828.672485,1507.192749 1826.647583,1505.722534 1821.887573,1505.774658 
	C1802.559814,1505.986450 1783.228271,1505.856567 1763.898193,1505.853516 
	C1761.565308,1505.853149 1759.209473,1505.649536 1756.904053,1505.902344 
	C1751.876099,1506.453857 1750.634277,1503.975220 1750.728760,1499.435547 
	C1750.936768,1489.441650 1750.895142,1479.438477 1750.734009,1469.442749 
	C1750.668457,1465.371338 1751.832153,1463.036499 1756.344238,1463.441040 
	C1757.997070,1463.589111 1759.674805,1463.458496 1761.341187,1463.458496 
	C1821.997681,1463.457275 1882.654175,1463.456177 1943.310669,1463.455444 
	C1944.310547,1463.455444 1945.311035,1463.432739 1946.310059,1463.461548 
	C1953.486816,1463.667969 1953.590332,1463.670044 1953.669556,1470.581543 
	C1953.776611,1479.912231 1953.785889,1489.245605 1953.682739,1498.576294 
	C1953.604858,1505.632568 1953.498169,1505.791504 1946.464966,1505.823730 
	C1926.802002,1505.913696 1907.138184,1505.818604 1887.474976,1505.874634 
	C1874.840698,1505.910645 1876.228516,1504.642090 1876.220947,1517.042358 
	C1876.183594,1577.698853 1876.206177,1638.355469 1876.207764,1699.011963 
	C1876.207764,1701.011597 1876.062744,1703.024292 1876.238403,1705.008423 
	C1876.638672,1709.534058 1875.202881,1711.680420 1870.138306,1711.554688 
	C1858.147705,1711.256836 1846.139771,1711.259644 1834.149048,1711.553101 
	C1829.075073,1711.677246 1827.993530,1709.509277 1828.041382,1704.991089 
	C1828.217163,1688.328979 1828.107178,1671.663940 1828.104736,1654.000000 
z"/>
<path fill="#093A64" opacity="1.000000" stroke="none" 
	d="
M1703.077026,1586.000488 
	C1703.078369,1624.628296 1703.080200,1662.256104 1703.079956,1699.883911 
	C1703.079956,1702.214600 1703.067749,1704.545410 1703.051636,1706.876099 
	C1703.033325,1709.521729 1702.139526,1711.423828 1699.090698,1711.423096 
	C1685.772095,1711.419800 1672.453613,1711.421265 1659.135010,1711.393311 
	C1656.663574,1711.388184 1655.641479,1709.873779 1655.583252,1707.586182 
	C1655.523804,1705.256592 1655.521606,1702.925049 1655.521362,1700.594360 
	C1655.515869,1625.005737 1655.513672,1549.417236 1655.510986,1473.828613 
	C1655.510986,1472.829712 1655.494507,1471.830322 1655.516846,1470.831909 
	C1655.680298,1463.541382 1655.682373,1463.475220 1663.430176,1463.424927 
	C1674.085327,1463.355835 1684.741699,1463.340332 1695.396851,1463.414062 
	C1702.920898,1463.466187 1703.042236,1463.548950 1703.056641,1471.117920 
	C1703.110474,1499.421875 1703.077515,1527.726074 1703.077148,1556.030151 
	C1703.077026,1565.686890 1703.077148,1575.343628 1703.077026,1586.000488 
z"/>
<path fill="#FAFCFC" opacity="1.000000" stroke="none" 
	d="
M1490.830322,1505.063721 
	C1499.406372,1505.484009 1507.017578,1506.215576 1514.353516,1508.635376 
	C1533.814331,1515.054688 1544.230225,1531.093628 1542.953491,1552.605835 
	C1541.443481,1578.048096 1527.482544,1592.852051 1500.551025,1595.521973 
	C1479.354736,1597.623291 1457.981934,1595.978882 1436.690674,1596.294556 
	C1431.282104,1596.374634 1432.198486,1592.613159 1432.194458,1589.410889 
	C1432.166016,1567.113525 1432.177856,1544.816284 1432.177734,1522.518921 
	C1432.177734,1518.858154 1432.478882,1515.167847 1432.115601,1511.543701 
	C1431.574097,1506.145874 1433.990479,1504.687012 1439.005981,1504.759521 
	C1455.974243,1505.004883 1472.947021,1504.939331 1490.830322,1505.063721 
z"/>
</svg>